<svg width="1440" height="84" viewBox="0 0 1440 84" fill="none" xmlns="http://www.w3.org/2000/svg">
<g opacity="0.9" clip-path="url(#clip0_4396_1092)">
<path d="M48.9003 83.4711H144.815L192.764 41.9165L144.815 0.361877H48.9003L0.951172 41.9165L48.9003 83.4711Z" stroke="#01353F" stroke-width="1.8" stroke-miterlimit="10"/>
<path d="M48.9003 166.566H144.815L192.764 125.011L144.815 83.4565H48.9003L0.951172 125.011L48.9003 166.566Z" stroke="#01353F" stroke-width="1.8" stroke-miterlimit="10"/>
<path d="M48.9003 0.361903H144.815L192.764 -41.1927L144.815 -82.7473H48.9003L0.951172 -41.1927L48.9003 0.361903Z" stroke="#01353F" stroke-width="1.8" stroke-miterlimit="10"/>
<path d="M144.815 0.361903H240.713L288.663 -41.1927L240.713 -82.7473H144.815L96.8496 -41.1927L144.815 0.361903Z" stroke="#01353F" stroke-width="1.8" stroke-miterlimit="10"/>
<path d="M240.715 0.361903H336.629L384.579 -41.1927L336.629 -82.7473H240.715L192.766 -41.1927L240.715 0.361903Z" stroke="#01353F" stroke-width="1.8" stroke-miterlimit="10"/>
<path d="M144.815 83.4711H240.713L288.663 41.9165L240.713 0.361877H144.815L96.8496 41.9165L144.815 83.4711Z" stroke="#01353F" stroke-width="1.8" stroke-miterlimit="10"/>
<path d="M144.815 166.566H240.713L288.663 125.011L240.713 83.4565H144.815L96.8496 125.011L144.815 166.566Z" stroke="#01353F" stroke-width="1.8" stroke-miterlimit="10"/>
<path d="M432.527 0.361903H528.442L576.391 -41.1927L528.442 -82.7473H432.527L384.578 -41.1927L432.527 0.361903Z" stroke="#01353F" stroke-width="1.8" stroke-miterlimit="10"/>
<path d="M336.63 0.361903H432.528L480.477 -41.1927L432.528 -82.7473H336.63L288.664 -41.1927L336.63 0.361903Z" stroke="#01353F" stroke-width="1.8" stroke-miterlimit="10"/>
<path d="M240.715 83.4711H336.629L384.579 41.9165L336.629 0.361877H240.715L192.766 41.9165L240.715 83.4711Z" stroke="#01353F" stroke-width="1.8" stroke-miterlimit="10"/>
<path d="M240.715 166.566H336.629L384.579 125.011L336.629 83.4565H240.715L192.766 125.011L240.715 166.566Z" stroke="#01353F" stroke-width="1.8" stroke-miterlimit="10"/>
<path d="M336.63 83.4711H432.528L480.477 41.9165L432.528 0.361877H336.63L288.664 41.9165L336.63 83.4711Z" stroke="#01353F" stroke-width="1.8" stroke-miterlimit="10"/>
<path d="M336.63 166.566H432.528L480.477 125.011L432.528 83.4565H336.63L288.664 125.011L336.63 166.566Z" stroke="#01353F" stroke-width="1.8" stroke-miterlimit="10"/>
<path d="M432.527 83.4711H528.442L576.391 41.9165L528.442 0.361877H432.527L384.578 41.9165L432.527 83.4711Z" stroke="#01353F" stroke-width="1.8" stroke-miterlimit="10"/>
<path d="M432.527 166.566H528.442L576.391 125.011L528.442 83.4565H432.527L384.578 125.011L432.527 166.566Z" stroke="#01353F" stroke-width="1.8" stroke-miterlimit="10"/>
<path d="M1199.29 0.361903H1295.18L1343.13 -41.1927L1295.18 -82.7473H1199.29L1151.34 -41.1927L1199.29 0.361903Z" stroke="#01353F" stroke-width="1.8" stroke-miterlimit="10"/>
<path d="M1295.18 0.361903H1391.1L1439.05 -41.1927L1391.1 -82.7473H1295.18L1247.23 -41.1927L1295.18 0.361903Z" stroke="#01353F" stroke-width="1.8" stroke-miterlimit="10"/>
<path d="M1199.29 83.4711H1295.18L1343.13 41.9165L1295.18 0.361877H1199.29L1151.34 41.9165L1199.29 83.4711Z" stroke="#01353F" stroke-width="1.8" stroke-miterlimit="10"/>
<path d="M1199.29 166.566H1295.18L1343.13 125.011L1295.18 83.4565H1199.29L1151.34 125.011L1199.29 166.566Z" stroke="#01353F" stroke-width="1.8" stroke-miterlimit="10"/>
<path d="M1295.18 83.4711H1391.1L1439.05 41.9165L1391.1 0.361877H1295.18L1247.23 41.9165L1295.18 83.4711Z" stroke="#01353F" stroke-width="1.8" stroke-miterlimit="10"/>
<path d="M1295.18 166.566H1391.1L1439.05 125.011L1391.1 83.4565H1295.18L1247.23 125.011L1295.18 166.566Z" stroke="#01353F" stroke-width="1.8" stroke-miterlimit="10"/>
<path d="M528.442 83.4711H624.34L672.289 41.9165L624.34 0.361877H528.442L480.477 41.9165L528.442 83.4711Z" stroke="#01353F" stroke-width="1.8" stroke-miterlimit="10"/>
<path d="M528.442 166.566H624.34L672.289 125.011L624.34 83.4565H528.442L480.477 125.011L528.442 166.566Z" stroke="#01353F" stroke-width="1.8" stroke-miterlimit="10"/>
<path d="M528.442 0.361903H624.34L672.289 -41.1927L624.34 -82.7473H528.442L480.477 -41.1927L528.442 0.361903Z" stroke="#01353F" stroke-width="1.8" stroke-miterlimit="10"/>
<path d="M624.34 83.4711H720.254L768.204 41.9165L720.254 0.361877H624.34L576.391 41.9165L624.34 83.4711Z" stroke="#01353F" stroke-width="1.8" stroke-miterlimit="10"/>
<path d="M624.34 166.566H720.254L768.204 125.011L720.254 83.4565H624.34L576.391 125.011L624.34 166.566Z" stroke="#01353F" stroke-width="1.8" stroke-miterlimit="10"/>
<path d="M624.34 0.361903H720.254L768.204 -41.1927L720.254 -82.7473H624.34L576.391 -41.1927L624.34 0.361903Z" stroke="#01353F" stroke-width="1.8" stroke-miterlimit="10"/>
<path d="M719.746 0.361903H815.644L863.61 -41.1927L815.644 -82.7473H719.746L671.797 -41.1927L719.746 0.361903Z" stroke="#01353F" stroke-width="1.8" stroke-miterlimit="10"/>
<path d="M911.558 0.361903H1007.47L1055.42 -41.1927L1007.47 -82.7473H911.558L863.609 -41.1927L911.558 0.361903Z" stroke="#01353F" stroke-width="1.8" stroke-miterlimit="10"/>
<path d="M815.644 0.361903H911.559L959.508 -41.1927L911.559 -82.7473H815.644L767.695 -41.1927L815.644 0.361903Z" stroke="#01353F" stroke-width="1.8" stroke-miterlimit="10"/>
<path d="M719.746 83.4711H815.644L863.61 41.9165L815.644 0.361877H719.746L671.797 41.9165L719.746 83.4711Z" stroke="#01353F" stroke-width="1.8" stroke-miterlimit="10"/>
<path d="M719.746 166.566H815.644L863.61 125.011L815.644 83.4565H719.746L671.797 125.011L719.746 166.566Z" stroke="#01353F" stroke-width="1.8" stroke-miterlimit="10"/>
<path d="M815.644 83.4711H911.559L959.508 41.9165L911.559 0.361877H815.644L767.695 41.9165L815.644 83.4711Z" stroke="#01353F" stroke-width="1.8" stroke-miterlimit="10"/>
<path d="M815.644 166.566H911.559L959.508 125.011L911.559 83.4565H815.644L767.695 125.011L815.644 166.566Z" stroke="#01353F" stroke-width="1.8" stroke-miterlimit="10"/>
<path d="M911.558 83.4711H1007.47L1055.42 41.9165L1007.47 0.361877H911.558L863.609 41.9165L911.558 83.4711Z" stroke="#01353F" stroke-width="1.8" stroke-miterlimit="10"/>
<path d="M911.558 166.566H1007.47L1055.42 125.011L1007.47 83.4565H911.558L863.609 125.011L911.558 166.566Z" stroke="#01353F" stroke-width="1.8" stroke-miterlimit="10"/>
<path d="M1007.47 83.4711H1103.37L1151.32 41.9165L1103.37 0.361877H1007.47L959.508 41.9165L1007.47 83.4711Z" stroke="#01353F" stroke-width="1.8" stroke-miterlimit="10"/>
<path d="M1007.47 166.566H1103.37L1151.32 125.011L1103.37 83.4565H1007.47L959.508 125.011L1007.47 166.566Z" stroke="#01353F" stroke-width="1.8" stroke-miterlimit="10"/>
<path d="M1007.47 0.361903H1103.37L1151.32 -41.1927L1103.37 -82.7473H1007.47L959.508 -41.1927L1007.47 0.361903Z" stroke="#01353F" stroke-width="1.8" stroke-miterlimit="10"/>
<path d="M1103.37 83.4711H1199.29L1247.23 41.9165L1199.29 0.361877H1103.37L1055.42 41.9165L1103.37 83.4711Z" stroke="#01353F" stroke-width="1.8" stroke-miterlimit="10"/>
<path d="M1103.37 166.566H1199.29L1247.23 125.011L1199.29 83.4565H1103.37L1055.42 125.011L1103.37 166.566Z" stroke="#01353F" stroke-width="1.8" stroke-miterlimit="10"/>
<path d="M1103.37 0.361903H1199.29L1247.23 -41.1927L1199.29 -82.7473H1103.37L1055.42 -41.1927L1103.37 0.361903Z" stroke="#01353F" stroke-width="1.8" stroke-miterlimit="10"/>
<path d="M1391.47 83.4423H1487.37L1535.32 41.8877L1487.37 0.33313H1391.47L1343.52 41.8877L1391.47 83.4423Z" stroke="#01353F" stroke-width="1.8" stroke-miterlimit="10"/>
<path d="M1391.47 166.537H1487.37L1535.32 124.983L1487.37 83.4279H1391.47L1343.52 124.983L1391.47 166.537Z" stroke="#01353F" stroke-width="1.8" stroke-miterlimit="10"/>
<path d="M1391.47 0.39784H1487.37L1535.32 -41.1568L1487.37 -82.7114H1391.47L1343.52 -41.1568L1391.47 0.39784Z" stroke="#01353F" stroke-width="1.8" stroke-miterlimit="10"/>
<path d="M-47.0735 0.325953H48.8247L96.7739 -41.2287L48.8247 -82.7833H-47.0735L-95.0391 -41.2287L-47.0735 0.325953Z" stroke="#01353F" stroke-width="1.8" stroke-miterlimit="10"/>
<path d="M-47.0735 83.4423H48.8247L96.7739 41.8877L48.8247 0.33313H-47.0735L-95.0391 41.8877L-47.0735 83.4423Z" stroke="#01353F" stroke-width="1.8" stroke-miterlimit="10"/>
<path d="M-47.0735 166.537H48.8247L96.7739 124.983L48.8247 83.4279H-47.0735L-95.0391 124.983L-47.0735 166.537Z" stroke="#01353F" stroke-width="1.8" stroke-miterlimit="10"/>
</g>
<defs>
<clipPath id="clip0_4396_1092">
<rect width="1440" height="84" fill="white"/>
</clipPath>
</defs>
</svg>
